Coordinates
version=1
nRows=17
nColumns=40
inDegrees=yes

Units are S.I. units (second, meters, Newtons, ...)
If the header above contains a line with 'inDegrees', this indicates whether rotational values are in degrees (yes) or radians (no).

endheader
time	pelvis_tilt	pelvis_list	pelvis_rotation	pelvis_tx	pelvis_ty	pelvis_tz	hip_flexion_r	hip_adduction_r	hip_rotation_r	knee_angle_r	knee_angle_r_beta	ankle_angle_r	subtalar_angle_r	mtp_angle_r	hip_flexion_l	hip_adduction_l	hip_rotation_l	knee_angle_l	knee_angle_l_beta	ankle_angle_l	subtalar_angle_l	mtp_angle_l	lumbar_extension	lumbar_bending	lumbar_rotation	arm_flex_r	arm_add_r	arm_rot_r	elbow_flex_r	pro_sup_r	wrist_flex_r	wrist_dev_r	arm_flex_l	arm_add_l	arm_rot_l	elbow_flex_l	pro_sup_l	wrist_flex_l	wrist_dev_l
      1.19000000	      2.92796733	    -11.15587129	     89.86745850	      0.20667948	      0.92207559	     -0.09596910	     18.44934418	      8.61199284	      5.33665585	      9.10599835	      0.15892965	      4.29306291	      0.00000000	      0.00000000	     29.80022032	     -3.99977895	      1.93427234	     59.20101109	      1.03325256	      4.32843545	      0.00000000	      0.00000000	      7.77008147	     -0.00195832	      5.48121605	      0.00000000	      0.00000000	      0.00000000	      0.00000000	      0.00000000	      0.00000000	      0.00000000	      0.00000000	      0.00000000	      0.00000000	      0.00000000	      0.00000000	      0.00000000	      0.00000000
      1.20000000	      2.45175977	    -11.28861836	     89.87085773	      0.20687594	      0.92390813	     -0.11357244	     16.62462560	      8.10147850	      5.89211242	      7.76440664	      0.13551446	      4.70871922	      0.00000000	      0.00000000	     31.56565316	     -3.58135985	      1.55605650	     56.82972262	      0.99186577	      6.37184517	      0.00000000	      0.00000000	      7.85305733	     -0.72845185	      5.77455664	      0.00000000	      0.00000000	      0.00000000	      0.00000000	      0.00000000	      0.00000000	      0.00000000	      0.00000000	      0.00000000	      0.00000000	      0.00000000	      0.00000000	      0.00000000	      0.00000000
      1.21000000	      1.96879181	    -11.62649090	     89.87237799	      0.20703002	      0.92482876	     -0.13102959	     15.16137046	      7.57604666	      6.34635022	      6.65107794	      0.11608321	      5.20069698	      0.00000000	      0.00000000	     33.38873753	     -3.19127425	      1.08147676	     54.02930580	      0.94298928	      7.86687524	      0.00000000	      0.00000000	      8.16411005	     -1.44542904	      6.03811272	      0.00000000	      0.00000000	      0.00000000	      0.00000000	      0.00000000	      0.00000000	      0.00000000	      0.00000000	      0.00000000	      0.00000000	      0.00000000	      0.00000000	      0.00000000	      0.00000000
      1.22000000	      1.63101529	    -11.48501826	     89.87173057	      0.20719143	      0.92576942	     -0.14898626	     13.08251528	      7.21200553	      6.89174006	      5.39189492	      0.09410632	      5.62728606	      0.00000000	      0.00000000	     34.45604013	     -3.01059830	      0.49184730	     50.80992696	      0.88680052	      9.21376206	      0.00000000	      0.00000000	      7.92917342	     -1.98358292	      6.29904177	      0.00000000	      0.00000000	      0.00000000	      0.00000000	      0.00000000	      0.00000000	      0.00000000	      0.00000000	      0.00000000	      0.00000000	      0.00000000	      0.00000000	      0.00000000	      0.00000000
      1.23000000	      1.34172054	    -11.69671851	     89.86943668	      0.20731029	      0.92543928	     -0.16666416	     11.56309981	      6.90604995	      7.26144844	      4.42892711	      0.07729936	      6.16134869	      0.00000000	      0.00000000	     35.82786886	     -2.90346004	     -0.19620561	     47.36530473	      0.82668052	     10.00530911	      0.00000000	      0.00000000	      8.10285234	     -2.44926100	      6.52590524	      0.00000000	      0.00000000	      0.00000000	      0.00000000	      0.00000000	      0.00000000	      0.00000000	      0.00000000	      0.00000000	      0.00000000	      0.00000000	      0.00000000	      0.00000000	      0.00000000
      1.24000000	      1.20427400	    -11.38033976	     89.86744141	      0.20742934	      0.92513531	     -0.18485959	      9.34104536	      6.76229566	      7.68403857	      3.27010138	      0.05707404	      6.66438926	      0.00000000	      0.00000000	     36.45022448	     -2.97704003	     -0.99682613	     43.64179312	      0.76169298	     10.44157453	      0.00000000	      0.00000000	      7.65963976	     -2.72125925	      6.74271217	      0.00000000	      0.00000000	      0.00000000	      0.00000000	      0.00000000	      0.00000000	      0.00000000	      0.00000000	      0.00000000	      0.00000000	      0.00000000	      0.00000000	      0.00000000	      0.00000000
      1.25000000	      1.14885994	    -11.26866015	     89.86149785	      0.20747252	      0.92379518	     -0.20296269	      7.44636754	      6.71234747	      7.99794516	      2.30994344	      0.04031612	      7.28187506	      0.00000000	      0.00000000	     37.23792600	     -3.12670124	     -1.90341383	     39.78809131	      0.69443320	     10.57615687	      0.00000000	      0.00000000	      7.45482587	     -2.87357521	      6.93163092	      0.00000000	      0.00000000	      0.00000000	      0.00000000	      0.00000000	      0.00000000	      0.00000000	      0.00000000	      0.00000000	      0.00000000	      0.00000000	      0.00000000	      0.00000000	      0.00000000
      1.26000000	      1.20783613	    -10.94386128	     89.85481457	      0.20743473	      0.92202730	     -0.22120544	      5.30426435	      6.77544485	      8.29573785	      1.33892110	      0.02336858	      7.90039282	      0.00000000	      0.00000000	     37.72736624	     -3.37998689	     -2.92076492	     35.82641655	      0.62528893	     10.39091067	      0.00000000	      0.00000000	      6.97479807	     -2.87998003	      7.10840211	      0.00000000	      0.00000000	      0.00000000	      0.00000000	      0.00000000	      0.00000000	      0.00000000	      0.00000000	      0.00000000	      0.00000000	      0.00000000	      0.00000000	      0.00000000	      0.00000000
      1.27000000	      1.32224308	    -10.53322454	     89.84680305	      0.20728120	      0.91972087	     -0.23967709	      3.06996193	      6.89302224	      8.57385615	      0.41618598	      0.00726382	      8.55823109	      0.00000000	      0.00000000	     38.05694859	     -3.63274455	     -3.98322377	     31.81067568	      0.55520103	      9.92764045	      0.00000000	      0.00000000	      6.43870069	     -2.78372479	      7.25564109	      0.00000000	      0.00000000	      0.00000000	      0.00000000	      0.00000000	      0.00000000	      0.00000000	      0.00000000	      0.00000000	      0.00000000	      0.00000000	      0.00000000	      0.00000000	      0.00000000
      1.28000000	      1.48135552	    -10.35496264	     89.83875499	      0.20691140	      0.91651065	     -0.25797767	      1.17482597	      7.04013977	      8.80013189	     -0.34020740	     -0.00593774	      9.34668886	      0.00000000	      0.00000000	     38.61921420	     -3.80322224	     -4.82146598	     27.78139360	      0.48487679	      9.30587028	      0.00000000	      0.00000000	      6.14503986	     -2.60601899	      7.37292963	      0.00000000	      0.00000000	      0.00000000	      0.00000000	      0.00000000	      0.00000000	      0.00000000	      0.00000000	      0.00000000	      0.00000000	      0.00000000	      0.00000000	      0.00000000	      0.00000000
      1.29000000	      1.64771928	     -9.84162180	     89.82692587	      0.20631946	      0.91328709	     -0.27653191	     -1.12887674	      7.15920401	      9.03654606	     -1.14475154	     -0.01997968	     10.09949528	      0.00000000	      0.00000000	     38.73288109	     -3.89885607	     -5.51002733	     23.71172645	      0.41384770	      8.30260018	      0.00000000	      0.00000000	      5.46287296	     -2.38079800	      7.46515693	      0.00000000	      0.00000000	      0.00000000	      0.00000000	      0.00000000	      0.00000000	      0.00000000	      0.00000000	      0.00000000	      0.00000000	      0.00000000	      0.00000000	      0.00000000	      0.00000000
      1.30000000	      1.85318936	     -9.42092770	     89.81322988	      0.20556649	      0.90955719	     -0.29503480	     -3.27946550	      7.30081810	      9.23383264	     -1.84323059	     -0.03217044	     10.80341750	      0.00000000	      0.00000000	     38.88439606	     -3.90815599	     -5.69143553	     19.67542556	      0.34340096	      7.33241713	      0.00000000	      0.00000000	      4.88486979	     -2.09441374	      7.53320307	      0.00000000	      0.00000000	      0.00000000	      0.00000000	      0.00000000	      0.00000000	      0.00000000	      0.00000000	      0.00000000	      0.00000000	      0.00000000	      0.00000000	      0.00000000	      0.00000000
      1.31000000	      2.00287530	     -8.89534807	     89.79765565	      0.20454946	      0.90572262	     -0.31367585	     -5.53916681	      7.34782878	      9.43828488	     -2.50125386	     -0.04365512	     11.46059648	      0.00000000	      0.00000000	     38.79585890	     -3.75727774	     -5.26485793	     15.65402358	      0.27321425	      6.28687942	      0.00000000	      0.00000000	      4.17138716	     -1.83674980	      7.57077385	      0.00000000	      0.00000000	      0.00000000	      0.00000000	      0.00000000	      0.00000000	      0.00000000	      0.00000000	      0.00000000	      0.00000000	      0.00000000	      0.00000000	      0.00000000	      0.00000000
      1.32000000	      2.15669715	     -8.46654668	     89.77935863	      0.20337129	      0.90164984	     -0.33238458	     -7.60818732	      7.38297667	      9.61050741	     -2.97700997	     -0.05195863	     12.04792132	      0.00000000	      0.00000000	     38.62776402	     -3.53308735	     -3.90696618	     11.65084320	      0.20334557	      5.40454000	      0.00000000	      0.00000000	      3.59009264	     -1.55229963	      7.55235937	      0.00000000	      0.00000000	      0.00000000	      0.00000000	      0.00000000	      0.00000000	      0.00000000	      0.00000000	      0.00000000	      0.00000000	      0.00000000	      0.00000000	      0.00000000	      0.00000000
      1.33000000	      2.41741025	     -8.35637405	     89.75851485	      0.20218605	      0.89708766	     -0.35104386	     -9.19167447	      7.53388821	      9.85599125	     -3.16098082	     -0.05516952	     12.65493795	      0.00000000	      0.00000000	     38.66676477	     -3.42259589	     -1.49275819	      7.87010890	      0.13735931	      4.89133669	      0.00000000	      0.00000000	      3.39969601	     -1.12541557	      7.53129977	      0.00000000	      0.00000000	      0.00000000	      0.00000000	      0.00000000	      0.00000000	      0.00000000	      0.00000000	      0.00000000	      0.00000000	      0.00000000	      0.00000000	      0.00000000	      0.00000000
      1.34000000	      2.47430085	     -7.73279453	     89.72736414	      0.20088491	      0.89338907	     -0.37041279	    -11.38780607	      7.44436444	      9.83605146	     -3.40742535	     -0.05947079	     13.07501674	     -0.00000000	     -0.00000000	     37.83672764	     -3.23354825	      1.12335148	      4.19954126	      0.07329582	      4.26948506	      0.00000000	      0.00000000	      2.67380665	     -0.95090979	      7.45908673	      0.00000000	     -0.00000000	      0.00000000	      0.00000000	      0.00000000	      0.00000000	     -0.00000000	      0.00000000	      0.00000000	     -0.00000000	      0.00000000	      0.00000000	      0.00000000	      0.00000000
      1.35000000	      2.69889456	     -7.54303464	     89.68102893	      0.19978170	      0.88925429	     -0.38976374	    -12.92392775	      7.55045020	     10.00332968	     -3.26769673	     -0.05703207	     13.47257530	      0.00000000	      0.00000000	     37.51776256	     -3.33964802	      3.89498940	      1.31021312	      0.02286753	      4.21484446	      0.00000000	      0.00000000	      2.49258011	     -0.58229694	      7.40253245	      0.00000000	      0.00000000	      0.00000000	      0.00000000	      0.00000000	      0.00000000	      0.00000000	      0.00000000	      0.00000000	      0.00000000	      0.00000000	      0.00000000	      0.00000000	      0.00000000
